<svg width="410" height="129" viewBox="0 0 410 129" fill="none" xmlns="http://www.w3.org/2000/svg">
<path d="M1 109.607V19.8163H18.9582V94.3021H37.4266V109.607H1Z" fill="#F2285A"/>
<path d="M63.7468 110.424C56.5703 110.424 51.0774 108.264 47.2681 103.944C43.4928 99.5909 41.6052 93.3157 41.6052 85.1189V42.4681C41.6052 34.7815 43.4758 28.9484 47.2171 24.9691C50.9924 20.9897 56.5023 19 63.7468 19C70.9913 19 76.4842 20.9897 80.2255 24.9691C84.0008 28.9484 85.8885 34.7815 85.8885 42.4681V85.1189C85.8885 93.3157 83.9838 99.5909 80.1745 103.944C76.3992 108.264 70.9233 110.424 63.7468 110.424ZM63.8999 93.8939C66.6208 93.8939 67.9813 91.258 67.9813 85.9862V42.162C67.9813 37.7405 66.6548 35.5297 64.0019 35.5297C61.0089 35.5297 59.5123 37.7915 59.5123 42.3151V86.0882C59.5123 88.8772 59.8525 90.8839 60.5327 92.1083C61.2129 93.2987 62.3353 93.8939 63.8999 93.8939Z" fill="#F2285A"/>
<path d="M113.688 110.424C106.206 110.424 100.696 108.332 97.1585 104.148C93.6212 99.931 91.8526 93.7409 91.8526 85.578V19.8163H109.301V84.8638C109.301 86.3603 109.386 87.8058 109.556 89.2003C109.726 90.5608 110.117 91.6831 110.729 92.5675C111.341 93.4518 112.328 93.8939 113.688 93.8939C115.083 93.8939 116.086 93.4688 116.698 92.6185C117.31 91.7342 117.685 90.5948 117.821 89.2003C117.991 87.8058 118.076 86.3603 118.076 84.8638V19.8163H135.524V85.578C135.524 93.7409 133.755 99.931 130.218 104.148C126.681 108.332 121.171 110.424 113.688 110.424Z" fill="#F2285A"/>
<path d="M142.202 109.607V19.8163H166.895C173.357 19.8163 178.221 21.6189 181.486 25.2242C184.751 28.7954 186.383 34.0332 186.383 40.9376V82.9761C186.383 91.4791 184.887 98.0433 181.894 102.669C178.935 107.295 173.731 109.607 166.282 109.607H142.202ZM160.262 93.7409H163.374C166.674 93.7409 168.323 92.1423 168.323 88.9452V42.6212C168.323 39.6281 167.915 37.7065 167.099 36.8562C166.317 35.9719 164.701 35.5297 162.252 35.5297H160.262V93.7409Z" fill="#F2285A"/>
<path d="M191.072 109.607L199.745 19.8163H230.203L238.723 109.607H221.734L220.458 95.1183H209.643L208.52 109.607H191.072ZM210.918 80.7824H219.081L215.153 35.1216H214.336L210.918 80.7824Z" fill="#F2285A"/>
<path d="M265.349 110.424C257.152 110.424 251.234 108.383 247.595 104.302C243.99 100.22 242.187 93.7239 242.187 84.8128V76.0377H259.941V87.2616C259.941 89.3363 260.247 90.9689 260.859 92.1593C261.506 93.3157 262.611 93.8939 264.176 93.8939C265.808 93.8939 266.931 93.4178 267.543 92.4654C268.189 91.5131 268.512 89.9485 268.512 87.7718C268.512 85.0168 268.24 82.721 267.696 80.8844C267.152 79.0138 266.199 77.2452 264.839 75.5786C263.512 73.878 261.659 71.9053 259.278 69.6605L251.217 62.0079C245.197 56.3279 242.187 49.8317 242.187 42.5191C242.187 34.8665 243.956 29.0335 247.493 25.0201C251.064 21.0067 256.217 19 262.951 19C271.182 19 277.015 21.1938 280.45 25.5813C283.919 29.9688 285.654 36.6351 285.654 45.5802H267.39V39.4071C267.39 38.1826 267.033 37.2303 266.318 36.5501C265.638 35.8698 264.703 35.5297 263.512 35.5297C262.084 35.5297 261.029 35.9379 260.349 36.7541C259.703 37.5364 259.38 38.5568 259.38 39.8152C259.38 41.0736 259.72 42.4341 260.4 43.8966C261.081 45.3591 262.424 47.0427 264.431 48.9474L274.787 58.8958C276.862 60.8685 278.767 62.9602 280.501 65.171C282.236 67.3477 283.63 69.8986 284.685 72.8236C285.739 75.7146 286.266 79.2518 286.266 83.4353C286.266 91.8702 284.702 98.4855 281.573 103.281C278.478 108.043 273.07 110.424 265.349 110.424Z" fill="#F2285A"/>
<path d="M313.505 110.424C306.328 110.424 300.835 108.264 297.026 103.944C293.251 99.5909 291.363 93.3157 291.363 85.1189V42.4681C291.363 34.7815 293.234 28.9484 296.975 24.9691C300.75 20.9897 306.26 19 313.505 19C320.749 19 326.242 20.9897 329.983 24.9691C333.759 28.9484 335.646 34.7815 335.646 42.4681V85.1189C335.646 93.3157 333.742 99.5909 329.932 103.944C326.157 108.264 320.681 110.424 313.505 110.424ZM313.658 93.8939C316.379 93.8939 317.739 91.258 317.739 85.9862V42.162C317.739 37.7405 316.413 35.5297 313.76 35.5297C310.767 35.5297 309.27 37.7915 309.27 42.3151V86.0882C309.27 88.8772 309.61 90.8839 310.291 92.1083C310.971 93.2987 312.093 93.8939 313.658 93.8939Z" fill="#F2285A"/>
<path d="M342.682 109.607V19.8163H367.017C373.548 19.8163 378.292 21.4148 381.251 24.6119C384.244 27.775 385.741 33.0128 385.741 40.3254V44.2537C385.741 48.4712 384.976 51.8894 383.445 54.5083C381.949 57.1272 379.653 58.8448 376.558 59.6611C380.605 60.6814 383.309 63.0793 384.669 66.8546C386.064 70.5959 386.761 75.1704 386.761 80.5783C386.761 86.3943 386.217 91.4791 385.129 95.8326C384.04 100.186 382.068 103.57 379.211 105.985C376.354 108.4 372.289 109.607 367.017 109.607H342.682ZM360.232 53.641H363.905C365.572 53.641 366.643 52.9948 367.119 51.7023C367.596 50.4099 367.834 48.8623 367.834 47.0597V38.0296C367.834 35.1386 366.558 33.6931 364.007 33.6931H360.232V53.641ZM362.018 93.7919C366.677 93.7919 369.007 91.5811 369.007 87.1596V75.9357C369.007 73.3848 368.616 71.3781 367.834 69.9156C367.085 68.4191 365.657 67.6708 363.548 67.6708H360.232V93.6898C360.98 93.7579 361.575 93.7919 362.018 93.7919Z" fill="#F2285A"/>
<path d="M391.654 109.607V19.8163H409V109.607H391.654Z" fill="#F2285A"/>
</svg>
